<?xml version="1.0" encoding="utf-8"?>
<!-- Generator: Adobe Illustrator 19.0.0, SVG Export Plug-In . SVG Version: 6.00 Build 0)  -->
<svg version="1.1" xmlns="http://www.w3.org/2000/svg" xmlns:xlink="http://www.w3.org/1999/xlink" xml:space="preserve">
<style type="text/css">
	.st0{fill-rule:evenodd;clip-rule:evenodd;fill:url(#SVGID_1_);}
	.st1{fill-rule:evenodd;clip-rule:evenodd;fill:url(#SVGID_2_);}
	.st2{fill-rule:evenodd;clip-rule:evenodd;fill:url(#SVGID_3_);}
	.st3{fill-rule:evenodd;clip-rule:evenodd;fill:url(#SVGID_4_);}
	.st4{fill-rule:evenodd;clip-rule:evenodd;}
	* {fill: #fff !important;}
</style>
	<g style="transform: translate(-110px, -236px) scale(0.6);">
		<linearGradient id="SVGID_1_" gradientUnits="userSpaceOnUse" x1="204.0418" y1="416.6997" x2="176.0354" y2="467.2246">
			<stop  offset="0" style="stop-color:#07295C"/>
			<stop  offset="1" style="stop-color:#004A90"/>
		</linearGradient>
		<polygon class="st0" points="183.1,446.4 212.5,395.5 216.5,402.3 191,446.4 "/>
		<linearGradient id="SVGID_2_" gradientUnits="userSpaceOnUse" x1="212.2222" y1="401.8218" x2="234.2295" y2="439.9395">
			<stop  offset="0" style="stop-color:#00498F"/>
			<stop  offset="1" style="stop-color:#08295B"/>
		</linearGradient>
		<polygon class="st1" points="241.9,446.4 212.5,395.5 208.6,402.3 234,446.4 "/>
		<linearGradient id="SVGID_3_" gradientUnits="userSpaceOnUse" x1="216.605" y1="442.9811" x2="242.2227" y2="442.9811">
			<stop  offset="0" style="stop-color:#101F4F"/>
			<stop  offset="1" style="stop-color:#00498F"/>
		</linearGradient>
		<polygon class="st2" points="202.9,439.6 238,439.6 241.9,446.4 198.9,446.4 "/>
		<linearGradient id="SVGID_4_" gradientUnits="userSpaceOnUse" x1="210.4036" y1="433.2956" x2="218.769" y2="419.5973">
			<stop  offset="0" style="stop-color:#08295B"/>
			<stop  offset="1" style="stop-color:#004A90"/>
		</linearGradient>
		<polygon class="st3" points="198.9,446.4 215.1,418.4 219.1,425.2 206.8,446.4 198.9,446.4 "/>
		<path class="st4" d="M270.1,446.4c-0.6-1.4-0.7-2.8-0.7-4.6v-5.9c0-4-1-6.9-4-8.1c2.7-1.3,3.9-3.8,3.9-7.8v-3c0-5.9-2.7-8.8-8.9-8.8
			h-9.1v38.3h6v-15.6h2.1c2.7,0,3.9,1.3,3.9,4.9v6c0,3.1,0.2,3.7,0.5,4.7H270.1L270.1,446.4z M260.3,413.6c2.1,0,3.1,1.2,3.1,3.9v3.8
			c0,3.1-1.4,4-3.6,4h-2.4v-11.8H260.3L260.3,413.6z M291.1,408.1H282v38.3h9.5c6,0,9.1-3.2,9.1-9.1v-3.1c0-4-1.3-6.9-4.5-8.2
			c2.7-1.3,3.9-3.8,3.9-7.7v-1.4C300,411,297.3,408.1,291.1,408.1L291.1,408.1L291.1,408.1z M290.7,429.2c2.7,0,3.9,1.1,3.9,4.6v3.3
			c0,2.8-1.1,3.8-3.1,3.8H288v-11.8H290.7L290.7,429.2z M290.9,413.6c2.1,0,3.1,1.2,3.1,3.9v2.1c0,3.1-1.4,4-3.6,4H288v-10.1H290.9
			L290.9,413.6z M312.9,446.4h6v-38.3h-6V446.4L312.9,446.4z M331.9,446.4h9.5c6,0,9-3.3,9-9.5v-19.4c0-6.1-3-9.5-9-9.5h-9.5V446.4
			L331.9,446.4z M341.3,413.6c1.9,0,3.1,1,3.1,3.7v19.9c0,2.7-1.1,3.7-3.1,3.7h-3.4v-27.3H341.3L341.3,413.6z M368.9,413.6h10.4v-5.5
			h-16.4v38.3h16.4v-5.5h-10.4v-11.2h8.3v-5.5h-8.3V413.6L368.9,413.6z M406.1,408.1l-4.6,14.1l-4.5-14.1h-6.2l6.3,18.6l-6.7,19.7h5.6
			l5-15.1l4.9,15.1h6.3l-6.7-19.7l6.3-18.6H406.1z"/>
	</g>
</svg>
